# xmcd
#
# Track frame offsets:
# 150
# 20077
# 35815
#
# Disc length: 740 seconds
#
#
# Revision: 0
# Processed by: cddbd v1.5.2PL0 Copyright (c) Steve Scherf et al.
# Submitted via: FreeRIP 2.951 
#
DISCID=2302e203
DTITLE=Phil Collins - Dance Into The Light
DYEAR=1996
DGENRE=Rock
TTITLE0=Dance Into The Light
TTITLE1=Take Me Down
TTITLE2=It's Over (Home Demo)
EXTD=è um CD single de apresentação ao Album
EXTT0=
EXTT1=
EXTT2=
PLAYORDER=
